<svg width="418" height="117" viewBox="0 0 418 117" fill="none" xmlns="http://www.w3.org/2000/svg">
<g clip-path="url(#clip0_4966_14706)">
<path d="M57.8151 10.3789C48.5182 10.3789 40.8018 17.1116 39.2642 25.9466C38.9509 27.1681 38.9794 34.6536 38.9653 34.6536C38.9653 36.003 39.8051 44.4403 31.7042 52.5082C23.6177 60.5902 14.5203 59.1273 14.5203 59.1273V59.1556C11.0607 59.0561 7.57257 60.2778 4.93873 62.9054C-0.129641 67.9622 -0.129641 76.1721 4.93873 81.2287C10.0071 86.2855 18.2361 86.2855 23.3045 81.2287C25.9383 78.6009 27.177 75.121 27.063 71.6694H27.0915C27.0915 71.6694 25.625 62.593 33.7259 54.511C41.8126 46.4288 50.1269 47.3946 51.4652 47.3946C51.4652 47.3946 56.8043 47.9913 57.8007 47.9769C68.2222 47.9202 76.6647 39.5541 76.6647 29.1567C76.6647 18.7593 68.2366 10.3789 57.8151 10.3789Z" fill="#00A85A"/>
<path d="M95.4725 74.5096C93.5075 68.956 87.8413 65.7885 82.2177 66.7258C81.4203 66.797 76.9357 68.3878 76.9357 68.3878C76.1242 68.6719 71.241 70.9589 64.6921 67.8337C58.1429 64.7089 57.0894 58.9847 57.0894 58.9847H57.075C56.406 56.911 54.9396 55.0787 52.7897 54.0702C48.6896 52.11 43.7635 53.857 41.7988 57.9477C39.8342 62.0387 41.5852 66.9532 45.6856 68.9134C47.821 69.9219 50.1702 69.936 52.206 69.1407C52.206 69.1407 57.3313 66.3567 63.8946 69.4816C70.4438 72.6064 71.6396 77.7624 71.91 78.5721C71.91 78.5721 72.693 81.8816 72.9067 82.4783C75.1418 88.6854 81.9473 91.9523 88.1829 89.7507C94.4046 87.549 97.6791 80.7311 95.4725 74.5096Z" fill="#00A85A"/>
<path d="M50.3697 84.654C50.3697 89.1991 46.6823 92.8781 42.1266 92.8781C37.5706 92.8781 33.8832 89.1991 33.8832 84.654C33.8832 80.1086 37.5706 76.4297 42.1266 76.4297C46.6823 76.4297 50.3697 80.1086 50.3697 84.654Z" fill="#00A85A"/>
<path d="M93.5509 63.4455C93.5509 63.4455 93.4939 63.4455 93.4654 63.4455C92.0559 63.4028 90.9454 62.224 90.9881 60.8035C91.3155 50.8607 87.9984 41.1594 81.6629 33.5034C80.7659 32.4097 80.9225 30.8046 82.0045 29.9098C83.0865 29.0149 84.7096 29.1711 85.6064 30.2507C92.7393 38.8725 96.4694 49.7813 96.0993 60.9741C96.0564 62.3517 94.9174 63.4455 93.5365 63.4455H93.5509Z" fill="#002859" stroke="#002859" stroke-width="2.43645"/>
<path d="M7.972 51.3549C7.75846 51.3549 7.55914 51.3267 7.34557 51.2699C5.97882 50.929 5.13884 49.537 5.49477 48.1733C9.02553 34.1965 19.1338 22.5634 32.5167 17.038C33.8265 16.4983 35.3212 17.1233 35.8623 18.4158C36.4034 19.7226 35.7768 21.214 34.4814 21.7538C22.5934 26.6684 13.6099 37.0091 10.4635 49.4232C10.1645 50.5738 9.1252 51.3549 7.98623 51.3549H7.972Z" fill="#002859" stroke="#002859" stroke-width="2.43645"/>
<path d="M50.1148 105.4C49.6021 105.4 49.1039 105.4 48.5913 105.372C38.1983 105.031 28.1186 101.139 20.217 94.406C19.135 93.4969 19.0211 91.8776 19.9322 90.8123C20.8434 89.7471 22.4664 89.6192 23.5342 90.5282C30.6527 96.5935 39.3658 99.9599 48.748 100.272C56.4503 100.528 64.0242 98.6246 70.6445 94.7612C71.869 94.051 73.4348 94.4628 74.1467 95.6845C74.8586 96.9059 74.4457 98.4684 73.2214 99.1787C66.2025 103.269 58.2298 105.4 50.0863 105.4H50.1148Z" fill="#002859" stroke="#002859" stroke-width="2.43645"/>
</g>
<path d="M127.47 93H117.72V24.75H122.595C127.34 24.75 132.475 25.66 138 27.48C143.59 29.3 149.18 31.8675 154.77 35.1825C160.36 38.4975 165.625 42.4625 170.565 47.0775C175.57 51.6275 179.86 56.6975 183.435 62.2875V24.75H193.185V93H183.435C183.435 87.02 182.2 81.3 179.73 75.84C177.325 70.315 174.108 65.245 170.078 60.63C166.048 55.95 161.563 51.8225 156.623 48.2475C151.748 44.6075 146.775 41.65 141.705 39.375C136.635 37.035 131.89 35.54 127.47 34.89V93ZM258.742 93H248.992V58.875C248.992 54.39 247.887 50.295 245.677 46.59C243.532 42.885 240.607 39.96 236.902 37.815C233.197 35.605 229.102 34.5 224.617 34.5H219.352V93H209.602V24.75H224.617C230.792 24.75 236.447 26.2775 241.582 29.3325C246.782 32.3875 250.877 36.385 253.867 41.325C256.857 36.385 260.92 32.3875 266.055 29.3325C271.255 26.2775 276.942 24.75 283.117 24.75H298.132V93H288.382V34.5H283.117C278.632 34.5 274.537 35.605 270.832 37.815C267.192 39.96 264.267 42.885 262.057 46.59C259.847 50.295 258.742 54.39 258.742 58.875V93ZM389.897 73.5C389.897 77.075 389.019 80.3575 387.264 83.3475C385.509 86.2725 383.169 88.6125 380.244 90.3675C377.319 92.1225 374.037 93 370.397 93H311.117V83.25H370.397C373.127 83.25 375.434 82.3075 377.319 80.4225C379.204 78.4725 380.147 76.165 380.147 73.5C380.147 70.835 379.204 68.56 377.319 66.675C375.434 64.725 373.127 63.75 370.397 63.75H330.617C327.042 63.75 323.759 62.8725 320.769 61.1175C317.844 59.3625 315.504 57.0225 313.749 54.0975C311.994 51.1075 311.117 47.825 311.117 44.25C311.117 40.675 311.994 37.425 313.749 34.5C315.504 31.51 317.844 29.1375 320.769 27.3825C323.759 25.6275 327.042 24.75 330.617 24.75H385.022V34.5H330.617C327.952 34.5 325.644 35.475 323.694 37.425C321.809 39.31 320.867 41.585 320.867 44.25C320.867 46.915 321.809 49.2225 323.694 51.1725C325.644 53.0575 327.952 54 330.617 54H370.397C374.037 54 377.319 54.8775 380.244 56.6325C383.169 58.3875 385.509 60.76 387.264 63.75C389.019 66.675 389.897 69.925 389.897 73.5Z" fill="#002859"/>
<defs>
<clipPath id="clip0_4966_14706">
<rect width="96.2051" height="96.2432" fill="white" transform="translate(1.13745 10.3789)"/>
</clipPath>
</defs>
</svg>
